{
  "accessors": [
    {
      "name": "Box003_1_0_positions",
      "componentType": 5126,
      "count": 3292,
      "min": [
        -19.611799240112305,
        33.27180099487305,
        31.006000518798828
      ],
      "max": [
        -13.188799858093262,
        35.50510025024414,
        37.93259811401367
      ],
      "type": "VEC3",
      "bufferView": 0,
      "byteOffset": 0
    },
    {
      "name": "Box003_1_0_normals",
      "componentType": 5126,
      "count": 3292,
      "min": [
        -0.9604945778846741,
        -0.9999954700469971,
        -0.99525386095047
      ],
      "max": [
        0.9604945778846741,
        0.9999954700469971,
        0.99525386095047
      ],
      "type": "VEC3",
      "bufferView": 1,
      "byteOffset": 0
    },
    {
      "name": "Box003_1_0_texcoords",
      "componentType": 5126,
      "count": 3292,
      "min": [
        0,
        0
      ],
      "max": [
        1,
        1
      ],
      "type": "VEC2",
      "bufferView": 2,
      "byteOffset": 0
    },
    {
      "name": "Box003_1_0_indices",
      "componentType": 5123,
      "count": 18432,
      "min": [
        0
      ],
      "max": [
        3291
      ],
      "type": "SCALAR",
      "bufferView": 3,
      "byteOffset": 0
    },
    {
      "name": "Plane003_1_0_positions",
      "componentType": 5126,
      "count": 5250,
      "min": [
        -23.187400817871094,
        33.30070114135742,
        31.24839973449707
      ],
      "max": [
        -14.096599578857422,
        33.43360137939453,
        42.10070037841797
      ],
      "type": "VEC3",
      "bufferView": 0,
      "byteOffset": 39504
    },
    {
      "name": "Plane003_1_0_normals",
      "componentType": 5126,
      "count": 5250,
      "min": [
        -0.9917048811912537,
        -0.9999963641166687,
        -0.9918715953826904
      ],
      "max": [
        0.9958771467208862,
        0.9999988675117493,
        0.9999311566352844
      ],
      "type": "VEC3",
      "bufferView": 1,
      "byteOffset": 39504
    },
    {
      "name": "Plane003_1_0_texcoords",
      "componentType": 5126,
      "count": 5250,
      "min": [
        0.000699999975040555,
        0.000699999975040555
      ],
      "max": [
        0.9994000196456909,
        0.9991999864578247
      ],
      "type": "VEC2",
      "bufferView": 2,
      "byteOffset": 26336
    },
    {
      "name": "Plane003_1_0_indices",
      "componentType": 5123,
      "count": 31488,
      "min": [
        0
      ],
      "max": [
        5249
      ],
      "type": "SCALAR",
      "bufferView": 3,
      "byteOffset": 36864
    },
    {
      "name": "Plane002_1_0_positions",
      "componentType": 5126,
      "count": 4356,
      "min": [
        -28.149700164794922,
        33.672401428222656,
        25.98110008239746
      ],
      "max": [
        -4.5594000816345215,
        39.77289962768555,
        42.91960144042969
      ],
      "type": "VEC3",
      "bufferView": 0,
      "byteOffset": 102504
    },
    {
      "name": "Plane002_1_0_normals",
      "componentType": 5126,
      "count": 4356,
      "min": [
        -0.9941492080688477,
        -0.9999999403953552,
        -0.9994492530822754
      ],
      "max": [
        0.9944682121276855,
        0.9999999403953552,
        0.9989965558052063
      ],
      "type": "VEC3",
      "bufferView": 1,
      "byteOffset": 102504
    },
    {
      "name": "Plane002_1_0_texcoords",
      "componentType": 5126,
      "count": 4356,
      "min": [
        0.03909999877214432,
        0.07540000230073929
      ],
      "max": [
        0.9609000086784363,
        1
      ],
      "type": "VEC2",
      "bufferView": 2,
      "byteOffset": 68336
    },
    {
      "name": "Plane002_1_0_indices",
      "componentType": 5123,
      "count": 26112,
      "min": [
        0
      ],
      "max": [
        4355
      ],
      "type": "SCALAR",
      "bufferView": 3,
      "byteOffset": 99840
    },
    {
      "name": "Plane004_1_0_positions",
      "componentType": 5126,
      "count": 5250,
      "min": [
        -19.791000366210938,
        33.28739929199219,
        34.114498138427734
      ],
      "max": [
        -14.477700233459473,
        34.04679870605469,
        44.47309875488281
      ],
      "type": "VEC3",
      "bufferView": 0,
      "byteOffset": 154776
    },
    {
      "name": "Plane004_1_0_normals",
      "componentType": 5126,
      "count": 5250,
      "min": [
        -0.9999685287475586,
        -0.9998661279678345,
        -0.9970383644104004
      ],
      "max": [
        0.9999207258224487,
        0.9999702572822571,
        0.9886794686317444
      ],
      "type": "VEC3",
      "bufferView": 1,
      "byteOffset": 154776
    },
    {
      "name": "Plane004_1_0_texcoords",
      "componentType": 5126,
      "count": 5250,
      "min": [
        0.000699999975040555,
        0.000699999975040555
      ],
      "max": [
        0.9994000196456909,
        0.9991999864578247
      ],
      "type": "VEC2",
      "bufferView": 2,
      "byteOffset": 103184
    },
    {
      "name": "Plane004_1_0_indices",
      "componentType": 5123,
      "count": 31488,
      "min": [
        0
      ],
      "max": [
        5249
      ],
      "type": "SCALAR",
      "bufferView": 3,
      "byteOffset": 152064
    },
    {
      "name": "Box001_1_0_positions",
      "componentType": 5126,
      "count": 1008,
      "min": [
        -28.162200927734375,
        16.608200073242188,
        24.67060089111328
      ],
      "max": [
        -4.76230001449585,
        33.64250183105469,
        45.87049865722656
      ],
      "type": "VEC3",
      "bufferView": 0,
      "byteOffset": 217776
    },
    {
      "name": "Box001_1_0_normals",
      "componentType": 5126,
      "count": 1008,
      "min": [
        -0.9999923706054688,
        -0.9999998211860657,
        -0.9999703764915466
      ],
      "max": [
        0.9999854564666748,
        0.999971866607666,
        0.9999909400939941
      ],
      "type": "VEC3",
      "bufferView": 1,
      "byteOffset": 217776
    },
    {
      "name": "Box001_1_0_texcoords",
      "componentType": 5126,
      "count": 1008,
      "min": [
        0,
        0
      ],
      "max": [
        1,
        1
      ],
      "type": "VEC2",
      "bufferView": 2,
      "byteOffset": 145184
    },
    {
      "name": "Box001_1_0_indices",
      "componentType": 5123,
      "count": 5184,
      "min": [
        0
      ],
      "max": [
        1007
      ],
      "type": "SCALAR",
      "bufferView": 3,
      "byteOffset": 215040
    },
    {
      "name": "Ribbon_1_0_positions",
      "componentType": 5126,
      "count": 5948,
      "min": [
        -28.182600021362305,
        16.204700469970703,
        24.630800247192383
      ],
      "max": [
        -4.724299907684326,
        33.388301849365234,
        45.930198669433594
      ],
      "type": "VEC3",
      "bufferView": 0,
      "byteOffset": 229872
    },
    {
      "name": "Ribbon_1_0_normals",
      "componentType": 5126,
      "count": 5948,
      "min": [
        -0.9999985694885254,
        -0.9999960660934448,
        -0.9999955296516418
      ],
      "max": [
        0.9999986886978149,
        0.9999972581863403,
        0.9999960660934448
      ],
      "type": "VEC3",
      "bufferView": 1,
      "byteOffset": 229872
    },
    {
      "name": "Ribbon_1_0_texcoords",
      "componentType": 5126,
      "count": 5948,
      "min": [
        0,
        0
      ],
      "max": [
        1,
        1
      ],
      "type": "VEC2",
      "bufferView": 2,
      "byteOffset": 153248
    },
    {
      "name": "Ribbon_1_0_indices",
      "componentType": 5123,
      "count": 34176,
      "min": [
        0
      ],
      "max": [
        5947
      ],
      "type": "SCALAR",
      "bufferView": 3,
      "byteOffset": 225408
    },
    {
      "name": "Box005_1_0_positions",
      "componentType": 5126,
      "count": 2210,
      "min": [
        -40.68190002441406,
        0,
        -32.04119873046875
      ],
      "max": [
        6.605999946594238,
        43.252601623535156,
        59.78630065917969
      ],
      "type": "VEC3",
      "bufferView": 0,
      "byteOffset": 301248
    },
    {
      "name": "Box005_1_0_normals",
      "componentType": 5126,
      "count": 2210,
      "min": [
        -1,
        -1,
        -1
      ],
      "max": [
        1,
        1,
        1
      ],
      "type": "VEC3",
      "bufferView": 1,
      "byteOffset": 301248
    },
    {
      "name": "Box005_1_0_texcoords",
      "componentType": 5126,
      "count": 2210,
      "min": [
        0,
        0
      ],
      "max": [
        1,
        1
      ],
      "type": "VEC2",
      "bufferView": 2,
      "byteOffset": 200832
    },
    {
      "name": "Box005_1_0_indices",
      "componentType": 5123,
      "count": 12096,
      "min": [
        0
      ],
      "max": [
        2209
      ],
      "type": "SCALAR",
      "bufferView": 3,
      "byteOffset": 293760
    },
    {
      "name": "Box006_1_0_positions",
      "componentType": 5126,
      "count": 1008,
      "min": [
        24.46540069580078,
        8.10990047454834,
        -51.31060028076172
      ],
      "max": [
        55.95309829711914,
        31.466800689697266,
        -21.672300338745117
      ],
      "type": "VEC3",
      "bufferView": 0,
      "byteOffset": 327768
    },
    {
      "name": "Box006_1_0_normals",
      "componentType": 5126,
      "count": 1008,
      "min": [
        -1,
        -1,
        -1
      ],
      "max": [
        1,
        1,
        1
      ],
      "type": "VEC3",
      "bufferView": 1,
      "byteOffset": 327768
    },
    {
      "name": "Box006_1_0_texcoords",
      "componentType": 5126,
      "count": 1008,
      "min": [
        0,
        0
      ],
      "max": [
        1,
        1
      ],
      "type": "VEC2",
      "bufferView": 2,
      "byteOffset": 218512
    },
    {
      "name": "Box006_1_0_indices",
      "componentType": 5123,
      "count": 5184,
      "min": [
        0
      ],
      "max": [
        1007
      ],
      "type": "SCALAR",
      "bufferView": 3,
      "byteOffset": 317952
    },
    {
      "name": "Box008_1_0_positions",
      "componentType": 5126,
      "count": 1008,
      "min": [
        -40.68190002441406,
        57.45220184326172,
        -32.04119873046875
      ],
      "max": [
        6.605999946594238,
        66.84159851074219,
        12.469400405883789
      ],
      "type": "VEC3",
      "bufferView": 0,
      "byteOffset": 339864
    },
    {
      "name": "Box008_1_0_normals",
      "componentType": 5126,
      "count": 1008,
      "min": [
        -1,
        -1,
        -1
      ],
      "max": [
        1,
        1,
        1
      ],
      "type": "VEC3",
      "bufferView": 1,
      "byteOffset": 339864
    },
    {
      "name": "Box008_1_0_texcoords",
      "componentType": 5126,
      "count": 1008,
      "min": [
        0,
        0
      ],
      "max": [
        1,
        1
      ],
      "type": "VEC2",
      "bufferView": 2,
      "byteOffset": 226576
    },
    {
      "name": "Box008_1_0_indices",
      "componentType": 5123,
      "count": 5184,
      "min": [
        0
      ],
      "max": [
        1007
      ],
      "type": "SCALAR",
      "bufferView": 3,
      "byteOffset": 328320
    },
    {
      "name": "Box009_1_0_positions",
      "componentType": 5126,
      "count": 12592,
      "min": [
        -83.71649932861328,
        0,
        19.718900680541992
      ],
      "max": [
        -52.97330093383789,
        27.747499465942383,
        52.42919921875
      ],
      "type": "VEC3",
      "bufferView": 0,
      "byteOffset": 351960
    },
    {
      "name": "Box009_1_0_normals",
      "componentType": 5126,
      "count": 12592,
      "min": [
        -1,
        -1,
        -1
      ],
      "max": [
        1,
        1,
        1
      ],
      "type": "VEC3",
      "bufferView": 1,
      "byteOffset": 351960
    },
    {
      "name": "Box009_1_0_texcoords",
      "componentType": 5126,
      "count": 12592,
      "min": [
        0,
        0
      ],
      "max": [
        1,
        1
      ],
      "type": "VEC2",
      "bufferView": 2,
      "byteOffset": 234640
    },
    {
      "name": "Box009_1_0_indices",
      "componentType": 5123,
      "count": 73128,
      "min": [
        0
      ],
      "max": [
        12591
      ],
      "type": "SCALAR",
      "bufferView": 3,
      "byteOffset": 338688
    },
    {
      "name": "Torus004_1_0_positions",
      "componentType": 5126,
      "count": 3527,
      "min": [
        12.612299919128418,
        -0.019899999722838402,
        73.03679656982422
      ],
      "max": [
        24.37540054321289,
        24.776599884033203,
        77.58280181884766
      ],
      "type": "VEC3",
      "bufferView": 0,
      "byteOffset": 503064
    },
    {
      "name": "Torus004_1_0_normals",
      "componentType": 5126,
      "count": 3527,
      "min": [
        -1,
        -1,
        -1
      ],
      "max": [
        1,
        1,
        1
      ],
      "type": "VEC3",
      "bufferView": 1,
      "byteOffset": 503064
    },
    {
      "name": "Torus004_1_0_texcoords",
      "componentType": 5126,
      "count": 3527,
      "min": [
        0.0005000000237487257,
        0.015300000086426735
      ],
      "max": [
        0.9994999766349792,
        0.9994999766349792
      ],
      "type": "VEC2",
      "bufferView": 2,
      "byteOffset": 335376
    },
    {
      "name": "Torus004_1_0_indices",
      "componentType": 5123,
      "count": 20160,
      "min": [
        0
      ],
      "max": [
        3526
      ],
      "type": "SCALAR",
      "bufferView": 3,
      "byteOffset": 484944
    }
  ],
  "asset": {
    "generator": "obj2gltf",
    "version": "2.0"
  },
  "buffers": [
    {
      "name": "Joulukortti",
      "byteLength": 1979632,
      "uri": "data:application/octet-stream;base64,"
    }
  ],
  "bufferViews": [
    {
      "name": "bufferView_0",
      "buffer": 0,
      "byteLength": 545388,
      "byteOffset": 0,
      "byteStride": 12,
      "target": 34962
    },
    {
      "name": "bufferView_1",
      "buffer": 0,
      "byteLength": 545388,
      "byteOffset": 545388,
      "byteStride": 12,
      "target": 34962
    },
    {
      "name": "bufferView_2",
      "buffer": 0,
      "byteLength": 363592,
      "byteOffset": 1090776,
      "byteStride": 8,
      "target": 34962
    },
    {
      "name": "bufferView_3",
      "buffer": 0,
      "byteLength": 525264,
      "byteOffset": 1454368,
      "target": 34963
    }
  ],
  "materials": [
    {
      "name": "wire_115115115",
      "pbrMetallicRoughness": {
        "baseColorFactor": [
          0.5,
          0.5,
          0.5,
          1
        ],
        "metallicFactor": 0,
        "roughnessFactor": 1
      },
      "emissiveFactor": [
        0,
        0,
        0
      ],
      "alphaMode": "OPAQUE",
      "doubleSided": false
    }
  ],
  "meshes": [
    {
      "name": "Box003_1",
      "primitives": [
        {
          "attributes": {
            "POSITION": 0,
            "NORMAL": 1,
            "TEXCOORD_0": 2
          },
          "indices": 3,
          "material": 0,
          "mode": 4
        }
      ]
    },
    {
      "name": "Plane003_1",
      "primitives": [
        {
          "attributes": {
            "POSITION": 4,
            "NORMAL": 5,
            "TEXCOORD_0": 6
          },
          "indices": 7,
          "material": 0,
          "mode": 4
        }
      ]
    },
    {
      "name": "Plane002_1",
      "primitives": [
        {
          "attributes": {
            "POSITION": 8,
            "NORMAL": 9,
            "TEXCOORD_0": 10
          },
          "indices": 11,
          "material": 0,
          "mode": 4
        }
      ]
    },
    {
      "name": "Plane004_1",
      "primitives": [
        {
          "attributes": {
            "POSITION": 12,
            "NORMAL": 13,
            "TEXCOORD_0": 14
          },
          "indices": 15,
          "material": 0,
          "mode": 4
        }
      ]
    },
    {
      "name": "Box001_1",
      "primitives": [
        {
          "attributes": {
            "POSITION": 16,
            "NORMAL": 17,
            "TEXCOORD_0": 18
          },
          "indices": 19,
          "material": 0,
          "mode": 4
        }
      ]
    },
    {
      "name": "Ribbon_1",
      "primitives": [
        {
          "attributes": {
            "POSITION": 20,
            "NORMAL": 21,
            "TEXCOORD_0": 22
          },
          "indices": 23,
          "material": 0,
          "mode": 4
        }
      ]
    },
    {
      "name": "Box005_1",
      "primitives": [
        {
          "attributes": {
            "POSITION": 24,
            "NORMAL": 25,
            "TEXCOORD_0": 26
          },
          "indices": 27,
          "material": 0,
          "mode": 4
        }
      ]
    },
    {
      "name": "Box006_1",
      "primitives": [
        {
          "attributes": {
            "POSITION": 28,
            "NORMAL": 29,
            "TEXCOORD_0": 30
          },
          "indices": 31,
          "material": 0,
          "mode": 4
        }
      ]
    },
    {
      "name": "Box008_1",
      "primitives": [
        {
          "attributes": {
            "POSITION": 32,
            "NORMAL": 33,
            "TEXCOORD_0": 34
          },
          "indices": 35,
          "material": 0,
          "mode": 4
        }
      ]
    },
    {
      "name": "Box009_1",
      "primitives": [
        {
          "attributes": {
            "POSITION": 36,
            "NORMAL": 37,
            "TEXCOORD_0": 38
          },
          "indices": 39,
          "material": 0,
          "mode": 4
        }
      ]
    },
    {
      "name": "Torus004_1",
      "primitives": [
        {
          "attributes": {
            "POSITION": 40,
            "NORMAL": 41,
            "TEXCOORD_0": 42
          },
          "indices": 43,
          "material": 0,
          "mode": 4
        }
      ]
    }
  ],
  "nodes": [
    {
      "name": "Box003",
      "mesh": 0
    },
    {
      "name": "Plane003",
      "mesh": 1
    },
    {
      "name": "Plane002",
      "mesh": 2
    },
    {
      "name": "Plane004",
      "mesh": 3
    },
    {
      "name": "Box001",
      "mesh": 4
    },
    {
      "name": "Ribbon",
      "mesh": 5
    },
    {
      "name": "Box005",
      "mesh": 6
    },
    {
      "name": "Box006",
      "mesh": 7
    },
    {
      "name": "Box008",
      "mesh": 8
    },
    {
      "name": "Box009",
      "mesh": 9
    },
    {
      "name": "Torus004",
      "mesh": 10
    }
  ],
  "scene": 0,
  "scenes": [
    {
      "nodes": [
        0,
        1,
        2,
        3,
        4,
        5,
        6,
        7,
        8,
        9,
        10
      ]
    }
  ]
}
